<svg width="267" height="197" viewBox="0 0 267 197" fill="none" xmlns="http://www.w3.org/2000/svg">
<path d="M163.585 40.1945L235.378 117.629C249.74 133.119 243.237 158.277 223.167 164.867L208.105 169.812C203.548 171.309 198.572 169.338 196.275 165.127C192.446 158.107 182.624 157.432 177.871 163.863L166.699 178.978C160.423 187.469 147.696 187.389 141.527 178.82C134.602 169.203 120.05 169.876 113.861 179.966C108.706 188.372 97.1274 190.128 89.8124 183.53L64.6131 160.801C58.3117 155.118 48.5063 155.998 43.3176 162.712C39.0839 168.191 31.405 169.606 25.4967 165.995L20.5953 163C10.1572 156.621 7.84796 142.446 15.7219 133.084L92.4002 41.9152C110.785 20.0562 144.165 19.2492 163.585 40.1945Z" fill="#1A0202" stroke="white"/>
<path d="M110.804 107.879C109.703 109.062 107.862 109.161 106.642 108.101L101.069 103.266C98.972 101.446 100.259 98 103.035 98H113.109C115.73 98 117.091 101.125 115.305 103.044L110.804 107.879Z" fill="#D9D9D9"/>
<path d="M148.804 107.879C147.703 109.062 145.862 109.161 144.642 108.101L139.069 103.266C136.972 101.446 138.259 98 141.035 98H151.109C153.73 98 155.091 101.125 153.305 103.044L148.804 107.879Z" fill="#D9D9D9"/>
</svg>
